<svg xmlns="http://www.w3.org/2000/svg" width="59" height="59" viewBox="0 0 59 59">
  <g id="icon_circulo_ig" transform="translate(10153 20148)">
    <path id="Icon_awesome-instagram" data-name="Icon awesome-instagram" d="M15.252,9.668a7.82,7.82,0,1,0,7.82,7.82A7.808,7.808,0,0,0,15.252,9.668Zm0,12.9a5.084,5.084,0,1,1,5.084-5.084,5.093,5.093,0,0,1-5.084,5.084ZM25.216,9.348a1.824,1.824,0,1,1-1.824-1.824A1.82,1.82,0,0,1,25.216,9.348ZM30.395,11.2a9.026,9.026,0,0,0-2.464-6.391A9.086,9.086,0,0,0,21.54,2.345c-2.518-.143-10.066-.143-12.584,0A9.073,9.073,0,0,0,2.566,4.8,9.056,9.056,0,0,0,.1,11.193c-.143,2.518-.143,10.066,0,12.584a9.026,9.026,0,0,0,2.464,6.391,9.1,9.1,0,0,0,6.391,2.464c2.518.143,10.066.143,12.584,0a9.026,9.026,0,0,0,6.391-2.464,9.086,9.086,0,0,0,2.464-6.391c.143-2.518.143-10.059,0-12.577ZM27.142,26.479a5.147,5.147,0,0,1-2.9,2.9c-2.008.8-6.772.613-8.991.613s-6.99.177-8.991-.613a5.147,5.147,0,0,1-2.9-2.9c-.8-2.008-.613-6.772-.613-8.991S2.572,10.5,3.362,8.5a5.147,5.147,0,0,1,2.9-2.9c2.008-.8,6.772-.613,8.991-.613s6.99-.177,8.991.613a5.147,5.147,0,0,1,2.9,2.9c.8,2.008.613,6.772.613,8.991S27.938,24.478,27.142,26.479Z" transform="translate(-10138.995 -20136.238)"/>
    <path id="Trazado_7213" data-name="Trazado 7213" d="M29.5,3A26.508,26.508,0,0,0,19.186,53.919,26.508,26.508,0,0,0,39.814,5.081,26.331,26.331,0,0,0,29.5,3m0-3A29.5,29.5,0,1,1,0,29.5,29.5,29.5,0,0,1,29.5,0Z" transform="translate(-10153 -20148)"/>
  </g>
</svg>
