<svg xmlns="http://www.w3.org/2000/svg" width="59" height="59" viewBox="0 0 59 59">
  <g id="icon_circulo_fb" transform="translate(10075 20075)">
    <path id="Icon_awesome-facebook-f" data-name="Icon awesome-facebook-f" d="M16.561,16.8l.83-5.406H12.2V7.889a2.7,2.7,0,0,1,3.048-2.921h2.358V.365A28.76,28.76,0,0,0,13.423,0C9.151,0,6.358,2.589,6.358,7.277V11.4H1.609V16.8H6.358v13.07H12.2V16.8Z" transform="translate(-10055.609 -20060)"/>
    <path id="Trazado_7212" data-name="Trazado 7212" d="M29.5,3A26.508,26.508,0,0,0,19.186,53.919,26.508,26.508,0,0,0,39.814,5.081,26.331,26.331,0,0,0,29.5,3m0-3A29.5,29.5,0,1,1,0,29.5,29.5,29.5,0,0,1,29.5,0Z" transform="translate(-10075 -20075)"/>
  </g>
</svg>
