<?xml version="1.0" encoding="utf-8"?>
<!-- Generator: Adobe Illustrator 27.1.1, SVG Export Plug-In . SVG Version: 6.00 Build 0)  -->
<svg version="1.1" id="Capa_1" xmlns="http://www.w3.org/2000/svg" xmlns:xlink="http://www.w3.org/1999/xlink" x="0px" y="0px"
	 viewBox="0 0 59 59" style="enable-background:new 0 0 59 59;" xml:space="preserve">
<g id="icon_circulo_wp_outline" transform="translate(9991 20148)">
	<path id="Trazado_7215" d="M-9961.5-20145c-14.6,0-26.5,11.9-26.5,26.5c0,10.6,6.4,20.2,16.2,24.4c13.5,5.7,29-0.7,34.7-14.2
		c5.6-13.4-0.7-28.9-14.1-34.6C-9954.4-20144.3-9958-20145-9961.5-20145 M-9961.5-20148c16.3,0,29.5,13.2,29.5,29.5
		s-13.2,29.5-29.5,29.5s-29.5-13.2-29.5-29.5S-9977.8-20148-9961.5-20148z"/>
	<path d="M-9956.5-20105.5c-1.4,0-2.8-0.4-3.9-1.1c-5.7-3.2-10-7.8-12.8-13.7c-1.7-3.6-0.7-6.8,1.2-10c0.8-1.3,3.6-1.6,4.9-0.5
		c1.7,1.4,2.9,3.3,3.6,5.4c0.4,1.3-0.5,3.3-1.8,3.8c-0.5,0.3-0.7,0.5-0.4,1.2c1.4,2.5,3.4,4.6,5.8,6.2c0.5,0.4,0.9,0.3,1.2-0.3
		c0.8-1.3,3-2.1,4.5-1.3c1.4,0.9,2.8,1.8,3.9,2.9c1.7,1.7,1.3,3.4,0.1,5.3c-0.1,0.1-0.3,0.3-0.4,0.3
		C-9952.5-20106.2-9954.4-20105.5-9956.5-20105.5z M-9971.9-20123.4c0,0.9,0.4,2.1,1.1,3.3c2.4,4.6,5.9,8.2,10.1,11.1
		c2.6,1.7,5.4,1.8,8.3,0.5c1.2-0.5,1.6-1.8,0.7-2.6c-0.9-0.9-2.1-1.6-3.2-2.4c-0.7-0.4-1.4-0.3-2,0.4c-1.3,1.7-2.5,2-4.2,0.8
		c-2.6-1.7-4.7-4.1-6.2-6.8c-0.9-1.7-0.5-3,1.1-4.2c0.4-0.3,0.9-1.1,0.8-1.4c-0.5-1.6-1.3-3-2.6-4.1c-0.5-0.5-1.8-0.3-2.2,0.4
		C-9971.3-20127.1-9971.9-20125.7-9971.9-20123.4z"/>
</g>
</svg>
