<svg xmlns="http://www.w3.org/2000/svg" width="59" height="59" viewBox="0 0 59 59">
  <g id="icon_circulo_mail" transform="translate(9909 20148)">
    <g id="Icon_feather-mail" data-name="Icon feather-mail" transform="translate(-9896 -20136)" >
      <path id="Trazado_7205" data-name="Trazado 7205" d="M5.8,4.5h22.43a4.309,4.309,0,0,1,4.3,4.3V25.626a4.309,4.309,0,0,1-4.3,4.3H5.8a4.309,4.309,0,0,1-4.3-4.3V8.8A4.309,4.309,0,0,1,5.8,4.5Zm22.43,22.43a1.305,1.305,0,0,0,1.3-1.3V8.8a1.305,1.305,0,0,0-1.3-1.3H5.8A1.305,1.305,0,0,0,4.5,8.8V25.626a1.305,1.305,0,0,0,1.3,1.3Z" />
      <path id="Trazado_7206" data-name="Trazado 7206" d="M17.019,20.313a1.5,1.5,0,0,1-.86-.271L2.14,10.229A1.5,1.5,0,1,1,3.86,7.771l13.158,9.211L30.177,7.771a1.5,1.5,0,0,1,1.72,2.458L17.879,20.042A1.5,1.5,0,0,1,17.019,20.313Z" transform="translate(0 -0.196)" />
      <path id="Sustracción_2" data-name="Sustracción 2" d="M9925.538,20151.82a1.4,1.4,0,0,1-.863-.3l-10.65-8.262a5.581,5.581,0,0,0,.977-3.246c0-.016,0-.039,0-.055l11.4,8.84a1.709,1.709,0,0,1,.625,1.129,1.8,1.8,0,0,1-.256,1.188A1.46,1.46,0,0,1,9925.538,20151.82Zm-28.038,0a1.463,1.463,0,0,1-1.229-.707,1.8,1.8,0,0,1-.256-1.187,1.714,1.714,0,0,1,.625-1.129l11.363-8.816a.047.047,0,0,1,0,.012v.02a5.585,5.585,0,0,0,.986,3.262l-10.629,8.246A1.385,1.385,0,0,1,9897.5,20151.82Z" transform="translate(-9894.5 -20125)" />
    </g>
    <path id="Trazado_7216" data-name="Trazado 7216" d="M29.5,3A26.508,26.508,0,0,0,19.186,53.919,26.508,26.508,0,0,0,39.814,5.081,26.331,26.331,0,0,0,29.5,3m0-3A29.5,29.5,0,1,1,0,29.5,29.5,29.5,0,0,1,29.5,0Z" transform="translate(-9909 -20148)" />
  </g>
</svg>
